<svg width="30" height="30" viewBox="0 0 30 30" xmlns="http://www.w3.org/2000/svg">
    <g fill-rule="nonzero" fill="none">
        <path d="M24.961 0H5.039C2.268 0 0 2.268 0 5.04V24.96C0 27.732 2.268 30 5.04 30H24.96C27.732 30 30 27.732 30 24.961V5.039C30 2.268 27.732 0 24.961 0z" fill="#4A86C5"/>
        <path fill="#FFF" d="M11.25 24.375H7.5V11.25h3.75zM9.375 9.375a1.874 1.874 0 1 1-.001-3.749 1.874 1.874 0 0 1 .001 3.749zM24.375 24.375h-3.75v-7.5a1.874 1.874 0 1 0-3.75 0v7.5h-3.75V11.25h3.75v2.328c.773-1.062 1.956-2.328 3.281-2.328 2.33 0 4.219 2.1 4.219 4.688v8.437z"/>
    </g>
</svg>
