<svg width="375" height="500" viewBox="0 0 375 500" xmlns="http://www.w3.org/2000/svg" xmlns:xlink="http://www.w3.org/1999/xlink">
    <defs>
        <path id="a" d="M0 0h375v500H0z"/>
    </defs>
    <g fill="none" fill-rule="evenodd">
        <mask id="b" fill="#fff">
            <use xlink:href="#a"/>
        </mask>
        <path d="M158.97 134.203c.326-.093.603-.312.77-.608l4.273-7.646a.64.64 0 0 0-.72-.93l-30.172 8.547a1.27 1.27 0 0 0-.77.605l-4.273 7.646a.644.644 0 0 0 .72.933l30.171-8.547zM165.273 156.459c.327-.094.604-.312.77-.609l4.273-7.646a.64.64 0 0 0-.72-.929l-30.171 8.546c-.329.091-.606.31-.77.609l-4.274 7.643a.644.644 0 0 0 .72.932l30.172-8.546zM168.538 143.589a.64.64 0 0 0 .14-1.178l-7.65-4.266a1.282 1.282 0 0 0-.975-.115l-30.172 8.547a.64.64 0 0 0-.137 1.177l7.65 4.266c.296.166.646.208.972.115l30.172-8.546z" stroke="#231F20" stroke-width="1.008" fill="#00FF7E" stroke-linecap="round" stroke-linejoin="round" mask="url(#b)"/>
    </g>
</svg>
